Coordinates
version=1
nRows=49
nColumns=12
inDegrees=yes

Units are S.I. units (second, meters, Newtons, ...)
Angles are in degrees

endheader
time	SC_y	SC_z	SC_x	AC_y	AC_z	AC_x	GH_y	GH_z	GH_yy	EL_x	PS_y
       0.0              -38.89          20.12          9.973          54.45         -5.658          18.33         -24.57          15.41         -69.14          52.96          109.8
   0.04496              -38.89          20.12          9.978          54.45         -5.657          18.33         -24.58          15.41          -69.1          52.96          109.8
   0.08992              -38.89          20.12          9.982          54.45         -5.656          18.33         -24.59          15.41         -69.06          52.97          109.7
    0.1349              -38.89          20.12          9.987          54.45         -5.654          18.33          -24.6          15.41         -69.02          52.98          109.7
    0.1798              -38.89          20.13          9.993          54.45         -5.653          18.33         -24.61          15.41         -68.98          52.98          109.7
    0.2248              -38.89          20.13          9.998          54.45         -5.651          18.33         -24.62          15.41         -68.93          52.99          109.7
    0.2698               -38.9          20.13           10.0          54.45          -5.65          18.33         -24.64          15.41         -68.88           53.0          109.7
    0.3147               -38.9          20.13          10.01          54.45         -5.648          18.33         -24.65          15.41         -68.83           53.0          109.7
    0.3597               -38.9          20.13          10.02          54.45         -5.646          18.33         -24.66          15.41         -68.78          53.01          109.7
    0.4047               -38.9          20.14          10.02          54.45         -5.644          18.33         -24.68          15.41         -68.71          53.02          109.7
    0.4496               -38.9          20.14          10.03          54.45         -5.642          18.33         -24.69          15.41         -68.65          53.03          109.6
    0.4946              -38.91          20.14          10.04          54.45          -5.64          18.32         -24.71          15.41         -68.58          53.04          109.6
    0.5395              -38.91          20.14          10.05          54.45         -5.637          18.32         -24.73          15.41         -68.51          53.05          109.6
    0.5845              -38.91          20.15          10.06          54.45         -5.635          18.32         -24.75          15.41         -68.42          53.06          109.6
    0.6295              -38.91          20.15          10.07          54.45         -5.632          18.32         -24.77          15.41         -68.34          53.08          109.6
    0.6744              -38.92          20.15          10.08          54.45         -5.629          18.32          -24.8          15.41         -68.24          53.09          109.5
    0.7194              -38.92          20.16           10.1          54.45         -5.625          18.32         -24.82          15.41         -68.14          53.11          109.5
    0.7643              -38.93          20.16          10.11          54.45         -5.622          18.31         -24.85          15.41         -68.02          53.12          109.5
    0.8093              -38.93          20.17          10.12          54.45         -5.618          18.31         -24.88          15.41          -67.9          53.14          109.5
    0.8543              -38.93          20.17          10.14          54.45         -5.613          18.31         -24.92          15.41         -67.77          53.16          109.4
    0.8992              -38.94          20.18          10.16          54.45         -5.609          18.31         -24.95          15.41         -67.62          53.18          109.4
    0.9442              -38.94          20.18          10.18          54.45         -5.603           18.3          -25.0          15.41         -67.45          53.21          109.4
    0.9892              -38.95          20.19           10.2          54.44         -5.597           18.3         -25.04          15.41         -67.27          53.23          109.3
     1.034              -38.96           20.2          10.22          54.44         -5.591           18.3         -25.09          15.41         -67.07          53.26          109.3
     1.079              -38.97          20.21          10.25          54.44         -5.584          18.29         -25.15          15.41         -66.85           53.3          109.2
     1.124              -38.97          20.21          10.28          54.44         -5.576          18.29         -25.21          15.41          -66.6          53.33          109.2
     1.169              -38.98          20.22          10.32          54.44         -5.566          18.29         -25.28          15.41         -66.33          53.37          109.1
     1.214              -38.99          20.24          10.35          54.44         -5.556          18.28         -25.36          15.41         -66.02          53.42          109.0
     1.259              -39.01          20.25           10.4          54.44         -5.545          18.27         -25.45          15.41         -65.66          53.47          108.9
     1.304              -39.02          20.26          10.45          54.43         -5.532          18.27         -25.55          15.41         -65.26          53.53          108.8
     1.349              -39.04          20.28           10.5          54.43         -5.517          18.26         -25.66          15.41         -64.81           53.6          108.7
     1.394              -39.05           20.3          10.57          54.43           -5.5          18.25         -25.79          15.41         -64.28          53.68          108.6
     1.439              -39.07          20.32          10.64          54.43          -5.48          18.24         -25.95          15.41         -63.68          53.77          108.5
     1.484               -39.1          20.35          10.72          54.42         -5.457          18.23         -26.12          15.41         -62.97          53.87          108.3
     1.529              -39.13          20.38          10.83          54.42          -5.43          18.21         -26.33          15.41         -62.15          53.99          108.1
     1.574              -39.16          20.42          10.94          54.41         -5.399           18.2         -26.57          15.42         -61.18          54.13          107.9
     1.619               -39.2          20.46          11.08          54.41         -5.361          18.18         -26.86          15.42         -60.02           54.3          107.6
     1.664              -39.25          20.51          11.25           54.4         -5.316          18.15         -27.21          15.42         -58.64          54.51          107.3
     1.709               -39.3          20.58          11.46          54.39         -5.261          18.12         -27.63          15.42         -56.97          54.76          106.9
     1.754              -39.37          20.65          11.71          54.38         -5.195          18.09         -28.15          15.42         -54.93          55.06          106.4
     1.798              -39.46          20.75          12.01          54.37         -5.113          18.04         -28.78          15.42         -52.41          55.43          105.8
     1.843              -39.57          20.86           12.4          54.35          -5.01          17.99         -29.57          15.43         -49.26           55.9          105.0
     1.888              -39.71          21.01          12.88          54.33         -4.881          17.92         -30.57          15.43          -45.3          56.48          104.1
     1.933              -39.88           21.2          13.49          54.31         -4.717          17.83         -31.84          15.44         -40.26          57.22          102.9
     1.978               -40.1          21.44          14.28          54.28         -4.507          17.72         -33.46          15.44         -33.82          58.18          101.4
     2.023              -40.38          21.75          15.28          54.23         -4.237          17.58         -35.54          15.45         -25.55           59.4          99.42
     2.068              -40.75          22.15          16.57          54.18         -3.893          17.39          -38.2          15.46         -14.98          60.96          96.92
     2.113               -41.2          22.64          18.19          54.11         -3.459          17.16         -41.54          15.48         -1.699          62.92          93.77
     2.158              -41.76          23.25          20.16          54.03         -2.932          16.88         -45.61          15.49          14.49          65.31          89.93
